<mxfile host="app.diagrams.net" modified="2022-10-11T12:01:38.221Z" agent="5.0 (Macintosh; Intel Mac OS X 10_15_7) AppleWebKit/537.36 (KHTML, like Gecko) Chrome/106.0.0.0 Safari/537.36" etag="gY9DyF6_grWDfs2r8VbK" version="20.4.0" type="github">
  <diagram id="m_7Z0Bb-_IfI9RPbZQFV" name="Sida-1">
    <mxGraphModel dx="2178" dy="1916" grid="1" gridSize="10" guides="1" tooltips="1" connect="1" arrows="1" fold="1" page="1" pageScale="1" pageWidth="827" pageHeight="1169" math="0" shadow="0">
      <root>
        <mxCell id="0" />
        <mxCell id="1" parent="0" />
        <mxCell id="p86W4Vd3UmA3G3EFFirc-6" value="" style="edgeStyle=orthogonalEdgeStyle;rounded=0;orthogonalLoop=1;jettySize=auto;html=1;" parent="1" source="--HqOCToWxOxFmzwh4NH-1" target="p86W4Vd3UmA3G3EFFirc-2" edge="1">
          <mxGeometry relative="1" as="geometry" />
        </mxCell>
        <mxCell id="p86W4Vd3UmA3G3EFFirc-8" value="" style="edgeStyle=orthogonalEdgeStyle;rounded=0;orthogonalLoop=1;jettySize=auto;html=1;" parent="1" source="--HqOCToWxOxFmzwh4NH-1" edge="1">
          <mxGeometry relative="1" as="geometry">
            <mxPoint x="590" y="460" as="targetPoint" />
          </mxGeometry>
        </mxCell>
        <mxCell id="p86W4Vd3UmA3G3EFFirc-10" value="" style="edgeStyle=orthogonalEdgeStyle;rounded=0;orthogonalLoop=1;jettySize=auto;html=1;" parent="1" source="--HqOCToWxOxFmzwh4NH-1" target="p86W4Vd3UmA3G3EFFirc-9" edge="1">
          <mxGeometry relative="1" as="geometry" />
        </mxCell>
        <mxCell id="p86W4Vd3UmA3G3EFFirc-14" value="" style="edgeStyle=orthogonalEdgeStyle;rounded=0;orthogonalLoop=1;jettySize=auto;html=1;" parent="1" source="--HqOCToWxOxFmzwh4NH-1" target="p86W4Vd3UmA3G3EFFirc-13" edge="1">
          <mxGeometry relative="1" as="geometry" />
        </mxCell>
        <mxCell id="--HqOCToWxOxFmzwh4NH-1" value="Huvudsida med 3 dörrar" style="rounded=0;whiteSpace=wrap;html=1;" parent="1" vertex="1">
          <mxGeometry x="370" y="430" width="120" height="60" as="geometry" />
        </mxCell>
        <mxCell id="p86W4Vd3UmA3G3EFFirc-18" value="" style="edgeStyle=orthogonalEdgeStyle;rounded=0;orthogonalLoop=1;jettySize=auto;html=1;" parent="1" source="p86W4Vd3UmA3G3EFFirc-2" target="p86W4Vd3UmA3G3EFFirc-17" edge="1">
          <mxGeometry relative="1" as="geometry" />
        </mxCell>
        <mxCell id="p86W4Vd3UmA3G3EFFirc-2" value="Dörr 2" style="rounded=0;whiteSpace=wrap;html=1;" parent="1" vertex="1">
          <mxGeometry x="370" y="340" width="120" height="60" as="geometry" />
        </mxCell>
        <mxCell id="p86W4Vd3UmA3G3EFFirc-20" value="" style="edgeStyle=orthogonalEdgeStyle;rounded=0;orthogonalLoop=1;jettySize=auto;html=1;" parent="1" source="p86W4Vd3UmA3G3EFFirc-9" target="p86W4Vd3UmA3G3EFFirc-19" edge="1">
          <mxGeometry relative="1" as="geometry" />
        </mxCell>
        <mxCell id="p86W4Vd3UmA3G3EFFirc-9" value="Dörr 1" style="whiteSpace=wrap;html=1;rounded=0;" parent="1" vertex="1">
          <mxGeometry x="170" y="430" width="120" height="60" as="geometry" />
        </mxCell>
        <mxCell id="p86W4Vd3UmA3G3EFFirc-16" value="" style="edgeStyle=orthogonalEdgeStyle;rounded=0;orthogonalLoop=1;jettySize=auto;html=1;" parent="1" source="p86W4Vd3UmA3G3EFFirc-13" target="p86W4Vd3UmA3G3EFFirc-15" edge="1">
          <mxGeometry relative="1" as="geometry" />
        </mxCell>
        <mxCell id="p86W4Vd3UmA3G3EFFirc-13" value="Dörr 3" style="rounded=0;whiteSpace=wrap;html=1;" parent="1" vertex="1">
          <mxGeometry x="570" y="430" width="120" height="60" as="geometry" />
        </mxCell>
        <mxCell id="p86W4Vd3UmA3G3EFFirc-32" value="" style="edgeStyle=orthogonalEdgeStyle;rounded=0;orthogonalLoop=1;jettySize=auto;html=1;" parent="1" source="p86W4Vd3UmA3G3EFFirc-15" target="p86W4Vd3UmA3G3EFFirc-31" edge="1">
          <mxGeometry relative="1" as="geometry" />
        </mxCell>
        <mxCell id="p86W4Vd3UmA3G3EFFirc-34" value="" style="edgeStyle=orthogonalEdgeStyle;rounded=0;orthogonalLoop=1;jettySize=auto;html=1;" parent="1" source="p86W4Vd3UmA3G3EFFirc-15" target="p86W4Vd3UmA3G3EFFirc-33" edge="1">
          <mxGeometry relative="1" as="geometry" />
        </mxCell>
        <mxCell id="p86W4Vd3UmA3G3EFFirc-15" value="EXPLOTION" style="ellipse;whiteSpace=wrap;html=1;rounded=0;" parent="1" vertex="1">
          <mxGeometry x="570" y="290" width="120" height="60" as="geometry" />
        </mxCell>
        <mxCell id="p86W4Vd3UmA3G3EFFirc-26" value="" style="edgeStyle=orthogonalEdgeStyle;rounded=0;orthogonalLoop=1;jettySize=auto;html=1;" parent="1" source="p86W4Vd3UmA3G3EFFirc-17" target="p86W4Vd3UmA3G3EFFirc-25" edge="1">
          <mxGeometry relative="1" as="geometry" />
        </mxCell>
        <mxCell id="p86W4Vd3UmA3G3EFFirc-17" value="DU VANN!" style="ellipse;whiteSpace=wrap;html=1;rounded=0;" parent="1" vertex="1">
          <mxGeometry x="370" y="200" width="120" height="60" as="geometry" />
        </mxCell>
        <mxCell id="p86W4Vd3UmA3G3EFFirc-22" value="" style="edgeStyle=orthogonalEdgeStyle;rounded=0;orthogonalLoop=1;jettySize=auto;html=1;" parent="1" source="p86W4Vd3UmA3G3EFFirc-19" target="p86W4Vd3UmA3G3EFFirc-21" edge="1">
          <mxGeometry relative="1" as="geometry" />
        </mxCell>
        <mxCell id="p86W4Vd3UmA3G3EFFirc-36" value="" style="edgeStyle=orthogonalEdgeStyle;rounded=0;orthogonalLoop=1;jettySize=auto;html=1;" parent="1" source="p86W4Vd3UmA3G3EFFirc-19" target="p86W4Vd3UmA3G3EFFirc-35" edge="1">
          <mxGeometry relative="1" as="geometry" />
        </mxCell>
        <mxCell id="p86W4Vd3UmA3G3EFFirc-19" value="BOMB!" style="ellipse;whiteSpace=wrap;html=1;rounded=0;" parent="1" vertex="1">
          <mxGeometry x="170" y="290" width="120" height="60" as="geometry" />
        </mxCell>
        <mxCell id="p86W4Vd3UmA3G3EFFirc-24" value="" style="edgeStyle=orthogonalEdgeStyle;rounded=0;orthogonalLoop=1;jettySize=auto;html=1;" parent="1" source="p86W4Vd3UmA3G3EFFirc-21" target="p86W4Vd3UmA3G3EFFirc-23" edge="1">
          <mxGeometry relative="1" as="geometry" />
        </mxCell>
        <mxCell id="p86W4Vd3UmA3G3EFFirc-21" value="Escape" style="ellipse;shape=cloud;whiteSpace=wrap;html=1;rounded=0;" parent="1" vertex="1">
          <mxGeometry x="170" y="140" width="120" height="80" as="geometry" />
        </mxCell>
        <mxCell id="p86W4Vd3UmA3G3EFFirc-23" value="Tillbaka till huvudsida" style="whiteSpace=wrap;html=1;rounded=0;" parent="1" vertex="1">
          <mxGeometry x="170" y="-10" width="120" height="60" as="geometry" />
        </mxCell>
        <mxCell id="p86W4Vd3UmA3G3EFFirc-38" value="" style="edgeStyle=orthogonalEdgeStyle;rounded=0;orthogonalLoop=1;jettySize=auto;html=1;" parent="1" source="p86W4Vd3UmA3G3EFFirc-25" target="p86W4Vd3UmA3G3EFFirc-37" edge="1">
          <mxGeometry relative="1" as="geometry" />
        </mxCell>
        <mxCell id="p86W4Vd3UmA3G3EFFirc-25" value="Konfetti- tårta!" style="ellipse;shape=cloud;whiteSpace=wrap;html=1;rounded=0;" parent="1" vertex="1">
          <mxGeometry x="370" y="50" width="120" height="80" as="geometry" />
        </mxCell>
        <mxCell id="p86W4Vd3UmA3G3EFFirc-40" value="" style="edgeStyle=orthogonalEdgeStyle;rounded=0;orthogonalLoop=1;jettySize=auto;html=1;" parent="1" source="p86W4Vd3UmA3G3EFFirc-31" target="p86W4Vd3UmA3G3EFFirc-39" edge="1">
          <mxGeometry relative="1" as="geometry" />
        </mxCell>
        <mxCell id="p86W4Vd3UmA3G3EFFirc-31" value="Escape" style="ellipse;shape=cloud;whiteSpace=wrap;html=1;rounded=0;" parent="1" vertex="1">
          <mxGeometry x="570" y="140" width="120" height="80" as="geometry" />
        </mxCell>
        <mxCell id="p86W4Vd3UmA3G3EFFirc-33" value="Dynamit" style="whiteSpace=wrap;html=1;rounded=0;" parent="1" vertex="1">
          <mxGeometry x="770" y="290" width="120" height="60" as="geometry" />
        </mxCell>
        <mxCell id="p86W4Vd3UmA3G3EFFirc-35" value="Kanonkula" style="whiteSpace=wrap;html=1;rounded=0;" parent="1" vertex="1">
          <mxGeometry x="-30" y="290" width="120" height="60" as="geometry" />
        </mxCell>
        <mxCell id="p86W4Vd3UmA3G3EFFirc-37" value="Tillbaka" style="whiteSpace=wrap;html=1;rounded=0;" parent="1" vertex="1">
          <mxGeometry x="370" y="-100" width="120" height="60" as="geometry" />
        </mxCell>
        <mxCell id="p86W4Vd3UmA3G3EFFirc-39" value="Tillbaka" style="whiteSpace=wrap;html=1;rounded=0;" parent="1" vertex="1">
          <mxGeometry x="570" y="-10" width="120" height="60" as="geometry" />
        </mxCell>
      </root>
    </mxGraphModel>
  </diagram>
</mxfile>
